<svg xmlns="http://www.w3.org/2000/svg" style="display:none"><!-- Optimised sprite: no hard-coded fill so icons can use currentColor --><symbol id="icon-home" viewBox="0 -960 960 960"><path d="m240-200h120v-240h240v240h120v-360l-240-180-240 180zm-80 80v-480l320-240 320 240v480h-280v-240h-80v240z"/></symbol><symbol id="icon-info" viewBox="0 -960 960 960"><path d="M440-280h80v-240h-80v240Zm40-320q17 0 28.5-11.5T520-640q0-17-11.5-28.5T480-680q-17 0-28.5 11.5T440-640q0 17 11.5 28.5T480-600Zm0 520q-83 0-156-31.5T197-197q-54-54-85.5-127T80-480q0-83 31.5-156T197-763q54-54 127-85.5T480-880q83 0 156 31.5T763-763q54 54 85.5 127T880-480q0 83-31.5 156T763-197q-54 54-127 85.5T480-80Zm0-80q134 0 227-93t93-227q0-134-93-227t-227-93q-134 0-227 93t-93 227q0 134 93 227t227 93Zm0-320Z"/></symbol><symbol id="icon-menu" viewBox="0 -960 960 960"><path d="M120-240v-80h720v80H120Zm0-200v-80h720v80H120Zm0-200v-80h720v80H120Z"/></symbol><symbol id="icon-podcast" viewBox="0 -960 960 960"><path d="M440-80v-331q-18-11-29-28.5T400-480q0-33 23.5-56.5T480-560q33 0 56.5 23.5T560-480q0 23-11 41t-29 28v331h-80ZM204-190q-57-55-90.5-129.5T80-480q0-83 31.5-156T197-763q54-54 127-85.5T480-880q83 0 156 31.5T763-763q54 54 85.5 127T880-480q0 86-33.5 161T756-190l-56-56q46-44 73-104.5T800-480q0-134-93-227t-227-93q-134 0-227 93t-93 227q0 69 27 129t74 104l-57 57Zm113-113q-35-33-56-78.5T240-480q0-100 70-170t170-70q100 0 170 70t70 170q0 53-21 99t-56 78l-57-57q25-23 39.5-54t14.5-66q0-66-47-113t-113-47q-66 0-113 47t-47 113q0 36 14.5 66.5T374-360l-57 57Z"/></symbol><symbol id="icon-search" viewBox="0 -960 960 960"><path d="M784-120 532-372q-30 24-69 38t-83 14q-109 0-184.5-75.5T120-580q0-109 75.5-184.5T380-840q109 0 184.5 75.5T640-580q0 44-14 83t-38 69l252 252-56 56ZM380-400q75 0 127.5-52.5T560-580q0-75-52.5-127.5T380-760q-75 0-127.5 52.5T200-580q0 75 52.5 127.5T380-400Z"/></symbol></svg>
